<mxfile host="Electron" modified="2025-02-27T08:20:01.783Z" agent="Mozilla/5.0 (Windows NT 10.0; Win64; x64) AppleWebKit/537.36 (KHTML, like Gecko) draw.io/24.4.0 Chrome/120.0.6099.109 Electron/28.1.0 Safari/537.36" etag="1A3_BwgE8tqx0P3b1C8f" version="24.4.0" type="device">
  <diagram name="Страница — 1" id="jXRiwip6bNzLq_1Wyfow">
    <mxGraphModel dx="1050" dy="629" grid="1" gridSize="10" guides="1" tooltips="1" connect="1" arrows="1" fold="1" page="1" pageScale="1" pageWidth="827" pageHeight="1169" math="0" shadow="0">
      <root>
        <mxCell id="0" />
        <mxCell id="1" parent="0" />
        <mxCell id="fiedzdzceRrgKf7zjc-j-1" value="Triangle" style="swimlane;fontStyle=0;childLayout=stackLayout;horizontal=1;startSize=26;fillColor=none;horizontalStack=0;resizeParent=1;resizeParentMax=0;resizeLast=0;collapsible=1;marginBottom=0;whiteSpace=wrap;html=1;" vertex="1" parent="1">
          <mxGeometry x="320" y="200" width="410" height="336" as="geometry" />
        </mxCell>
        <mxCell id="fiedzdzceRrgKf7zjc-j-2" value="string Type =&amp;gt; &quot;&lt;span style=&quot;text-align: center;&quot;&gt;Triangle&lt;/span&gt;&quot;" style="text;strokeColor=none;fillColor=none;align=left;verticalAlign=top;spacingLeft=4;spacingRight=4;overflow=hidden;rotatable=0;points=[[0,0.5],[1,0.5]];portConstraint=eastwest;whiteSpace=wrap;html=1;" vertex="1" parent="fiedzdzceRrgKf7zjc-j-1">
          <mxGeometry y="26" width="410" height="64" as="geometry" />
        </mxCell>
        <mxCell id="fiedzdzceRrgKf7zjc-j-3" value="int Width" style="text;strokeColor=none;fillColor=none;align=left;verticalAlign=top;spacingLeft=4;spacingRight=4;overflow=hidden;rotatable=0;points=[[0,0.5],[1,0.5]];portConstraint=eastwest;whiteSpace=wrap;html=1;" vertex="1" parent="fiedzdzceRrgKf7zjc-j-1">
          <mxGeometry y="90" width="410" height="58" as="geometry" />
        </mxCell>
        <mxCell id="fiedzdzceRrgKf7zjc-j-4" value="int X" style="text;strokeColor=none;fillColor=none;align=left;verticalAlign=top;spacingLeft=4;spacingRight=4;overflow=hidden;rotatable=0;points=[[0,0.5],[1,0.5]];portConstraint=eastwest;whiteSpace=wrap;html=1;" vertex="1" parent="fiedzdzceRrgKf7zjc-j-1">
          <mxGeometry y="148" width="410" height="72" as="geometry" />
        </mxCell>
        <mxCell id="fiedzdzceRrgKf7zjc-j-5" value="int Y" style="text;strokeColor=none;fillColor=none;align=left;verticalAlign=top;spacingLeft=4;spacingRight=4;overflow=hidden;rotatable=0;points=[[0,0.5],[1,0.5]];portConstraint=eastwest;whiteSpace=wrap;html=1;" vertex="1" parent="fiedzdzceRrgKf7zjc-j-1">
          <mxGeometry y="220" width="410" height="58" as="geometry" />
        </mxCell>
        <mxCell id="fiedzdzceRrgKf7zjc-j-6" value="void Draw(char[,] canvas, int canvasWidth, int canvasHeight)" style="text;strokeColor=none;fillColor=none;align=left;verticalAlign=top;spacingLeft=4;spacingRight=4;overflow=hidden;rotatable=0;points=[[0,0.5],[1,0.5]];portConstraint=eastwest;whiteSpace=wrap;html=1;" vertex="1" parent="fiedzdzceRrgKf7zjc-j-1">
          <mxGeometry y="278" width="410" height="58" as="geometry" />
        </mxCell>
        <mxCell id="fiedzdzceRrgKf7zjc-j-8" value="Shape" style="html=1;whiteSpace=wrap;" vertex="1" parent="1">
          <mxGeometry x="450" y="50" width="110" height="50" as="geometry" />
        </mxCell>
        <mxCell id="fiedzdzceRrgKf7zjc-j-9" value="" style="endArrow=diamondThin;endFill=0;endSize=24;html=1;rounded=0;" edge="1" parent="1">
          <mxGeometry width="160" relative="1" as="geometry">
            <mxPoint x="504.5" y="200" as="sourcePoint" />
            <mxPoint x="504.5" y="100" as="targetPoint" />
          </mxGeometry>
        </mxCell>
      </root>
    </mxGraphModel>
  </diagram>
</mxfile>
